<?xml version="1.0" standalone="no"?>
<!DOCTYPE svg PUBLIC "-//W3C//DTD SVG 20010904//EN"
 "http://www.w3.org/TR/2001/REC-SVG-20010904/DTD/svg10.dtd">
<svg version="1.0" xmlns="http://www.w3.org/2000/svg"
 width="1000.000000pt" height="1000.000000pt" viewBox="0 0 1000.000000 1000.000000"
 preserveAspectRatio="xMidYMid meet">

<g transform="translate(0.000000,1000.000000) scale(0.100000,-0.100000)"
fill="#000000" stroke="none">
<path d="M4755 8414 c-16 -2 -79 -9 -140 -15 -60 -5 -188 -26 -283 -45 -95
-19 -175 -34 -177 -34 -12 0 -319 -379 -312 -386 3 -3 59 -15 124 -25 356 -57
650 -139 940 -260 53 -21 103 -39 113 -39 10 0 60 17 111 39 266 110 581 199
887 250 96 16 176 32 179 35 3 3 1 11 -4 18 -52 67 -283 346 -294 354 -31 25
-319 79 -528 99 -137 13 -528 19 -616 9z"/>
<path d="M2265 6854 c-93 -35 -184 -70 -201 -78 -71 -33 -282 -461 -386 -780
-77 -241 -144 -568 -154 -761 l-5 -100 103 -194 c57 -107 108 -196 114 -198 5
-2 23 29 38 69 74 191 314 539 547 792 l63 68 -13 57 c-19 83 -25 353 -11 500
15 154 63 457 90 562 25 98 26 129 3 128 -10 -1 -94 -30 -188 -65z"/>
<path d="M7570 6905 c0 -8 16 -92 35 -187 56 -283 76 -437 82 -648 5 -181 3
-221 -23 -361 -6 -33 -2 -40 75 -127 261 -297 459 -588 544 -802 15 -38 19
-42 31 -30 12 14 73 127 175 326 l41 80 -20 160 c-45 364 -126 666 -262 984
-57 134 -163 339 -216 418 l-37 55 -200 73 c-110 41 -206 74 -212 74 -7 0 -13
-7 -13 -15z"/>
<path d="M4720 5954 c-162 -118 -454 -330 -647 -472 -194 -141 -353 -261 -353
-268 0 -19 500 -1497 511 -1511 9 -11 157 -13 790 -13 l779 0 14 23 c8 12 113
317 234 677 121 360 232 688 246 729 14 41 26 82 26 91 0 10 -194 157 -507
385 -280 203 -568 414 -641 468 -74 54 -139 100 -145 102 -7 3 -145 -92 -307
-211z"/>
<path d="M2296 3024 c-3 -9 -6 -85 -6 -169 l0 -153 41 -54 c65 -83 373 -386
485 -476 248 -199 535 -371 830 -497 104 -45 112 -47 179 -41 67 5 266 36 273
42 2 1 -56 62 -130 136 -172 171 -330 383 -503 671 -38 63 -66 99 -79 102 -12
2 -62 11 -112 20 -255 42 -576 176 -846 353 -57 38 -108 71 -114 75 -7 4 -15
0 -18 -9z"/>
<path d="M7684 3004 c-274 -196 -673 -367 -947 -405 -47 -6 -90 -15 -95 -18
-5 -3 -42 -60 -82 -126 -172 -281 -323 -480 -491 -647 -71 -70 -126 -129 -121
-131 12 -8 191 -37 266 -44 68 -5 76 -3 171 37 488 206 942 536 1288 934 l77
88 0 169 c0 92 -4 170 -8 173 -5 3 -31 -11 -58 -30z"/>
</g>
</svg>
